<?xml version="1.0" encoding="UTF-8" standalone="no"?>
<svg
   width="436mm"
   height="223mm"
   viewBox="0 0 436 223"
   version="1.1"
   preserveAspectRatio="xMidYMid meet"
   id="svg330"
   sodipodi:docname="box_macker_.svg"
   inkscape:version="1.2.1 (9c6d41e410, 2022-07-14)"
   xmlns:inkscape="http://www.inkscape.org/namespaces/inkscape"
   xmlns:sodipodi="http://sodipodi.sourceforge.net/DTD/sodipodi-0.dtd"
   xmlns:xlink="http://www.w3.org/1999/xlink"
   xmlns="http://www.w3.org/2000/svg"
   xmlns:svg="http://www.w3.org/2000/svg">
  <defs
     id="defs334">
    <linearGradient
       id="linearGradient1063"
       inkscape:swatch="solid">
      <stop
         style="stop-color:#000000;stop-opacity:1;"
         offset="0"
         id="stop1061" />
    </linearGradient>
    <linearGradient
       inkscape:collect="always"
       xlink:href="#linearGradient1063"
       id="linearGradient1065"
       x1="297.98901"
       y1="83.837997"
       x2="305.98901"
       y2="83.837997"
       gradientUnits="userSpaceOnUse" />
    <linearGradient
       inkscape:collect="always"
       xlink:href="#linearGradient1063"
       id="linearGradient1097"
       gradientUnits="userSpaceOnUse"
       x1="297.98901"
       y1="83.837997"
       x2="305.98901"
       y2="83.837997"
       gradientTransform="translate(100.04928,-0.14909103)" />
    <linearGradient
       inkscape:collect="always"
       xlink:href="#linearGradient1063"
       id="linearGradient1130"
       gradientUnits="userSpaceOnUse"
       gradientTransform="translate(100.19652,-60.023697)"
       x1="297.98901"
       y1="83.837997"
       x2="305.98901"
       y2="83.837997" />
    <linearGradient
       inkscape:collect="always"
       xlink:href="#linearGradient1063"
       id="linearGradient1163"
       gradientUnits="userSpaceOnUse"
       x1="297.98901"
       y1="83.837997"
       x2="305.98901"
       y2="83.837997"
       gradientTransform="translate(-0.21120794,-60.032705)" />
    <linearGradient
       inkscape:collect="always"
       xlink:href="#linearGradient1063"
       id="linearGradient1250"
       gradientUnits="userSpaceOnUse"
       x1="297.98901"
       y1="83.837997"
       x2="305.98901"
       y2="83.837997"
       gradientTransform="translate(26.831174,62.547079)" />
    <linearGradient
       inkscape:collect="always"
       xlink:href="#linearGradient1063"
       id="linearGradient1252"
       gradientUnits="userSpaceOnUse"
       gradientTransform="translate(-0.36754326,53.722276)"
       x1="297.98901"
       y1="83.837997"
       x2="305.98901"
       y2="83.837997" />
    <linearGradient
       inkscape:collect="always"
       xlink:href="#linearGradient1063"
       id="linearGradient1254"
       gradientUnits="userSpaceOnUse"
       gradientTransform="translate(99.892946,113.6059)"
       x1="297.98901"
       y1="83.837997"
       x2="305.98901"
       y2="83.837997" />
    <linearGradient
       inkscape:collect="always"
       xlink:href="#linearGradient1063"
       id="linearGradient1256"
       gradientUnits="userSpaceOnUse"
       gradientTransform="translate(100.04019,53.731284)"
       x1="297.98901"
       y1="83.837997"
       x2="305.98901"
       y2="83.837997" />
    <linearGradient
       inkscape:collect="always"
       xlink:href="#linearGradient1063"
       id="linearGradient1293"
       gradientUnits="userSpaceOnUse"
       gradientTransform="translate(51.927267,-58.692918)"
       x1="297.98901"
       y1="83.837997"
       x2="305.98901"
       y2="83.837997" />
    <linearGradient
       inkscape:collect="always"
       xlink:href="#linearGradient1063"
       id="linearGradient1326"
       gradientUnits="userSpaceOnUse"
       gradientTransform="translate(52.04847,1.289638)"
       x1="297.98901"
       y1="83.837997"
       x2="305.98901"
       y2="83.837997" />
    <linearGradient
       inkscape:collect="always"
       xlink:href="#linearGradient1063"
       id="linearGradient1425"
       gradientUnits="userSpaceOnUse"
       gradientTransform="translate(-54.720532,61.404161)"
       x1="297.98901"
       y1="83.837997"
       x2="305.98901"
       y2="83.837997" />
    <linearGradient
       inkscape:collect="always"
       xlink:href="#linearGradient1063"
       id="linearGradient2391"
       gradientUnits="userSpaceOnUse"
       gradientTransform="translate(-111.81362,62.063486)"
       x1="297.98901"
       y1="83.837997"
       x2="305.98901"
       y2="83.837997" />
    <linearGradient
       inkscape:collect="always"
       xlink:href="#linearGradient1063"
       id="linearGradient2459"
       gradientUnits="userSpaceOnUse"
       gradientTransform="translate(21.26895,116.65296)"
       x1="297.98901"
       y1="83.837997"
       x2="305.98901"
       y2="83.837997" />
    <linearGradient
       inkscape:collect="always"
       xlink:href="#linearGradient1063"
       id="linearGradient2525"
       gradientUnits="userSpaceOnUse"
       gradientTransform="translate(79.811223,107.84365)"
       x1="297.98901"
       y1="83.837997"
       x2="305.98901"
       y2="83.837997" />
  </defs>
  <sodipodi:namedview
     id="namedview332"
     pagecolor="#ffffff"
     bordercolor="#000000"
     borderopacity="0.25"
     inkscape:showpageshadow="2"
     inkscape:pageopacity="0.0"
     inkscape:pagecheckerboard="0"
     inkscape:deskcolor="#d1d1d1"
     inkscape:document-units="mm"
     showgrid="false"
     showguides="true"
     inkscape:zoom="1.1327926"
     inkscape:cx="896.89853"
     inkscape:cy="575.12736"
     inkscape:window-width="1500"
     inkscape:window-height="930"
     inkscape:window-x="-6"
     inkscape:window-y="-6"
     inkscape:window-maximized="1"
     inkscape:current-layer="svg330">
    <sodipodi:guide
       position="354.7053,130.83248"
       orientation="1,0"
       id="guide1329"
       inkscape:locked="false" />
    <sodipodi:guide
       position="336.75059,167.93888"
       orientation="0,-1"
       id="guide1331"
       inkscape:locked="false" />
    <sodipodi:guide
       position="252.16395,72.679162"
       orientation="0.70710678,0.70710678"
       id="guide1391"
       inkscape:locked="false"
       inkscape:label=""
       inkscape:color="rgb(0,134,229)" />
    <sodipodi:guide
       position="217.8505,82.953247"
       orientation="1,0"
       id="guide1393"
       inkscape:locked="false" />
    <sodipodi:guide
       position="247.17653,84.948215"
       orientation="1,0"
       id="guide1545"
       inkscape:locked="false" />
    <sodipodi:guide
       position="192.71391,77.76633"
       orientation="0,-1"
       id="guide2394"
       inkscape:locked="false" />
  </sodipodi:namedview>
  <g
     id="svgGroup"
     stroke-linecap="round"
     fill-rule="evenodd"
     font-size="9pt"
     stroke="#000"
     stroke-width="0.25mm"
     fill="none"
     style="stroke:#000;stroke-width:0.25mm;fill:none">
    <path
       d="M 0 173 L 0 181.125 L 2 181.125 L 2 192.375 L 0 192.375 L 0 203.625 L 2 203.625 L 2 214.875 L 0 214.875 L 0 223 L 18.125 223 L 18.125 221 L 29.375 221 L 29.375 223 L 40.625 223 L 40.625 221 L 51.875 221 L 51.875 223 L 63.125 223 L 63.125 221 L 74.375 221 L 74.375 223 L 85.625 223 L 85.625 221 L 96.875 221 L 96.875 223 L 108.125 223 L 108.125 221 L 119.375 221 L 119.375 223 L 130.625 223 L 130.625 221 L 141.875 221 L 141.875 223 L 153.125 223 L 160 223 L 160 214.875 L 158 214.875 L 158 203.625 L 160 203.625 L 160 192.375 L 158 192.375 L 158 181.125 L 160 181.125 L 160 173 L 141.875 173 L 141.875 175 L 130.625 175 L 130.625 173 L 119.375 173 L 119.375 175 L 108.125 175 L 108.125 173 L 96.875 173 L 96.875 175 L 85.625 175 L 85.625 173 L 74.375 173 L 74.375 175 L 63.125 175 L 63.125 173 L 51.875 173 L 51.875 175 L 40.625 175 L 40.625 173 L 29.375 173 L 29.375 175 L 18.125 175 L 18.125 173 L 6.875 173 L 0 173 Z"
       id="front_outsideCutPath"
       stroke="#FF0000"
       stroke-width="0.1"
       style="stroke:#FF0000;stroke-width:0.025;stroke-dasharray:none"
       vector-effect="non-scaling-stroke" />
    <path
       d="M 165 173 L 165 181.125 L 163 181.125 L 163 192.375 L 165 192.375 L 165 203.625 L 163 203.625 L 163 214.875 L 165 214.875 L 165 223 L 178.625 223 L 178.625 221 L 189.875 221 L 189.875 223 L 201.125 223 L 201.125 221 L 212.375 221 L 212.375 223 L 223.625 223 L 223.625 221 L 234.875 221 L 234.875 223 L 246.125 223 L 246.125 221 L 257.375 221 L 257.375 223 L 268.625 223 L 271 223 L 271 214.875 L 273 214.875 L 273 203.625 L 271 203.625 L 271 192.375 L 273 192.375 L 273 181.125 L 271 181.125 L 271 173 L 257.375 173 L 257.375 175 L 246.125 175 L 246.125 173 L 234.875 173 L 234.875 175 L 223.625 175 L 223.625 173 L 212.375 173 L 212.375 175 L 201.125 175 L 201.125 173 L 189.875 173 L 189.875 175 L 178.625 175 L 178.625 173 L 167.375 173 L 165 173 Z"
       id="left_outsideCutPath"
       stroke="#FF0000"
       stroke-width="0.1"
       style="stroke:#FF0000;stroke-width:0.025;stroke-dasharray:none"
       vector-effect="non-scaling-stroke" />
    <path
       d="M 0 120 L 0 128.125 L 2 128.125 L 2 139.375 L 0 139.375 L 0 150.625 L 2 150.625 L 2 161.875 L 0 161.875 L 0 170 L 18.125 170 L 18.125 168 L 29.375 168 L 29.375 170 L 40.625 170 L 40.625 168 L 51.875 168 L 51.875 170 L 63.125 170 L 63.125 168 L 74.375 168 L 74.375 170 L 85.625 170 L 85.625 168 L 96.875 168 L 96.875 170 L 108.125 170 L 108.125 168 L 119.375 168 L 119.375 170 L 130.625 170 L 130.625 168 L 141.875 168 L 141.875 170 L 153.125 170 L 160 170 L 160 161.875 L 158 161.875 L 158 150.625 L 160 150.625 L 160 139.375 L 158 139.375 L 158 128.125 L 160 128.125 L 160 120 L 141.875 120 L 141.875 122 L 130.625 122 L 130.625 120 L 119.375 120 L 119.375 122 L 108.125 122 L 108.125 120 L 96.875 120 L 96.875 122 L 85.625 122 L 85.625 120 L 74.375 120 L 74.375 122 L 63.125 122 L 63.125 120 L 51.875 120 L 51.875 122 L 40.625 122 L 40.625 120 L 29.375 120 L 29.375 122 L 18.125 122 L 18.125 120 L 6.875 120 L 0 120 Z"
       id="back_outsideCutPath"
       stroke="#FF0000"
       stroke-width="0.1"
       style="stroke:#000000;stroke-width:0.025;stroke-dasharray:none;stroke-opacity:1"
       vector-effect="non-scaling-stroke" />
    <path
       d="m 165,120 v 8.125 h -2 v 11.25 h 2 v 11.25 h -2 v 11.25 h 2 V 170 h 13.625 v -2 h 11.25 v 2 h 11.25 v -2 h 11.25 v 2 h 11.25 v -2 h 11.25 v 2 h 11.25 v -2 h 11.25 v 2 h 11.25 2.375 v -8.125 h 2 v -11.25 h -2 v -11.25 h 2 v -11.25 h -2 V 120 h -13.625 v 2 h -11.25 v -2 h -11.25 v 2 h -11.25 v -2 h -11.25 v 2 h -11.25 v -2 h -11.25 v 2 h -11.25 v -2 h -11.25 z"
       id="right_outsideCutPath"
       stroke="#FF0000"
       stroke-width="0.1"
       style="stroke:#ff0000;stroke-width:0.025;stroke-dasharray:none"
       vector-effect="non-scaling-stroke" />
    <path
       d="M 278 2 L 278 15.625 L 276 15.625 L 276 26.875 L 278 26.875 L 278 38.125 L 276 38.125 L 276 49.375 L 278 49.375 L 278 60.625 L 276 60.625 L 276 71.875 L 278 71.875 L 278 83.125 L 276 83.125 L 276 94.375 L 278 94.375 L 278 105.625 L 278 108 L 294.125 108 L 294.125 110 L 305.375 110 L 305.375 108 L 316.625 108 L 316.625 110 L 327.875 110 L 327.875 108 L 339.125 108 L 339.125 110 L 350.375 110 L 350.375 108 L 361.625 108 L 361.625 110 L 372.875 110 L 372.875 108 L 384.125 108 L 384.125 110 L 395.375 110 L 395.375 108 L 406.625 108 L 406.625 110 L 417.875 110 L 417.875 108 L 429.125 108 L 434 108 L 434 94.375 L 436 94.375 L 436 83.125 L 434 83.125 L 434 71.875 L 436 71.875 L 436 60.625 L 434 60.625 L 434 49.375 L 436 49.375 L 436 38.125 L 434 38.125 L 434 26.875 L 436 26.875 L 436 15.625 L 434 15.625 L 434 4.375 L 434 2 L 417.875 2 L 417.875 0 L 406.625 0 L 406.625 2 L 395.375 2 L 395.375 0 L 384.125 0 L 384.125 2 L 372.875 2 L 372.875 0 L 361.625 0 L 361.625 2 L 350.375 2 L 350.375 0 L 339.125 0 L 339.125 2 L 327.875 2 L 327.875 0 L 316.625 0 L 316.625 2 L 305.375 2 L 305.375 0 L 294.125 0 L 294.125 2 L 282.875 2 L 278 2 Z"
       id="bottom_outsideCutPath"
       stroke="#FF0000"
       stroke-width="0.1"
       style="stroke:#FF0000;stroke-width:0.025;stroke-dasharray:none"
       vector-effect="non-scaling-stroke" />
    <ellipse
       style="fill:#ff0000;fill-opacity:0;fill-rule:evenodd;stroke:#000000;stroke-width:0.025;stroke-dasharray:none;stroke-opacity:1"
       id="path1387"
       cx="374.76825"
       cy="55.8591"
       rx="5"
       ry="10" />
  </g>
  <circle
     style="fill:#ffffff;fill-opacity:1;fill-rule:evenodd;stroke:url(#linearGradient1065);stroke-width:0.025;stroke-dasharray:none"
     id="path505"
     cx="301.98901"
     cy="83.837997"
     r="2" />
  <circle
     style="fill:#ffffff;fill-opacity:1;fill-rule:evenodd;stroke:url(#linearGradient1163);stroke-width:0.025;stroke-dasharray:none"
     id="path505-30"
     cx="301.7778"
     cy="23.805292"
     r="2" />
  <circle
     style="fill:#ffffff;fill-opacity:1;fill-rule:evenodd;stroke:url(#linearGradient1097);stroke-width:0.025;stroke-dasharray:none"
     id="path505-3"
     cx="402.0383"
     cy="83.688904"
     r="2" />
  <circle
     style="fill:#ffffff;fill-opacity:1;fill-rule:evenodd;stroke:url(#linearGradient1130);stroke-width:0.025;stroke-dasharray:none"
     id="path505-3-5"
     cx="402.18555"
     cy="23.814291"
     r="2" />
  <circle
     style="fill:#ffffff;fill-opacity:1;fill-rule:evenodd;stroke:url(#linearGradient1293);stroke-width:0.025;stroke-dasharray:none"
     id="path505-3-5-0"
     cx="353.91629"
     cy="25.145069"
     r="1.1" />
  <circle
     style="fill:#ffffff;fill-opacity:1;fill-rule:evenodd;stroke:url(#linearGradient1326);stroke-width:0.025;stroke-dasharray:none"
     id="path505-3-5-0-6"
     cx="354.03748"
     cy="85.127625"
     r="1.1" />
  <path
     d="m 277.84368,115.755 v 13.62498 h -2 v 11.24999 h 2 v 11.24999 h -2 v 11.25001 h 2 v 11.25 h -2 v 11.25 h 2 v 11.24999 h -2 v 11.25001 h 2 v 11.25001 2.375 h 16.125 v 2 h 11.25 v -2 h 11.25 v 2 h 11.25 v -2 h 11.25 v 2 h 11.25 v -2 h 11.25 v 2 h 11.25 v -2 h 11.25 v 2 h 11.25 v -2 h 11.25 v 2 h 11.25 v -2 h 11.25 4.875 v -13.62501 h 2 v -11.25 h -2 v -11.25 h 2 v -11.25 h -2 v -11.25 h 2 v -11.25001 h -2 v -11.24999 h 2 v -11.24999 h -2 V 118.12999 115.755 h -16.125 v -2.00001 h -11.25 v 2.00001 h -11.25 v -2.00001 h -11.25 v 2.00001 h -11.25 v -2.00001 h -11.25 v 2.00001 h -11.25 v -2.00001 h -11.25 v 2.00001 h -11.25 v -2.00001 h -11.25 v 2.00001 h -11.25 v -2.00001 h -11.25 v 2.00001 h -11.25 z"
     id="bottom_outsideCutPath-5"
     stroke="#FF0000"
     stroke-width="0.1"
     style="fill:none;stroke:#ff0000;stroke-width:0.025;stroke-dasharray:none"
     vector-effect="non-scaling-stroke" />
  <circle
     style="fill:#ffffff;fill-opacity:1;fill-rule:evenodd;stroke:url(#linearGradient1250);stroke-width:0.025;stroke-dasharray:none"
     id="path505-6"
     cx="328.82022"
     cy="146.38533"
     r="2" />
  <circle
     style="fill:#ffffff;fill-opacity:1;fill-rule:evenodd;stroke:url(#linearGradient1252);stroke-width:0.025;stroke-dasharray:none"
     id="path505-30-2"
     cx="301.62122"
     cy="137.56026"
     r="2" />
  <circle
     style="fill:#ffffff;fill-opacity:1;fill-rule:evenodd;stroke:url(#linearGradient1425);stroke-width:0.025;stroke-dasharray:none"
     id="path505-30-2-6"
     cx="247.26822"
     cy="145.24216"
     r="14" />
  <ellipse
     style="fill:#ffffff;fill-opacity:1;fill-rule:evenodd;stroke:url(#linearGradient2391);stroke-width:0.025;stroke-dasharray:none"
     id="path505-30-2-6-7"
     cx="190.1757"
     cy="145.90149"
     rx="16"
     ry="8" />
  <circle
     style="fill:#ffffff;fill-opacity:1;fill-rule:evenodd;stroke:url(#linearGradient1254);stroke-width:0.025;stroke-dasharray:none"
     id="path505-3-4"
     cx="401.88168"
     cy="197.44362"
     r="2" />
  <circle
     style="fill:#ffffff;fill-opacity:1;fill-rule:evenodd;stroke:url(#linearGradient2459);stroke-width:0.025;stroke-dasharray:none"
     id="path505-3-4-1"
     cx="323.25781"
     cy="200.4908"
     r="2" />
  <circle
     style="fill:#ffffff;fill-opacity:1;fill-rule:evenodd;stroke:url(#linearGradient2525);stroke-width:0.025;stroke-dasharray:none"
     id="path505-3-4-1-2"
     cx="381.80005"
     cy="191.68164"
     r="2" />
  <circle
     style="fill:#ffffff;fill-opacity:1;fill-rule:evenodd;stroke:url(#linearGradient1256);stroke-width:0.025;stroke-dasharray:none"
     id="path505-3-5-2"
     cx="402.02893"
     cy="137.56927"
     r="2" />
  <circle
     style="fill:none;fill-opacity:0;fill-rule:evenodd;stroke:#000000;stroke-width:0.025;stroke-opacity:1;stroke-dasharray:none"
     id="path1547"
     cx="265.33075"
     cy="163.78688"
     r="1" />
  <circle
     style="fill:none;fill-opacity:0;fill-rule:evenodd;stroke:#000000;stroke-width:0.025;stroke-opacity:1;stroke-dasharray:none"
     id="path1547-7"
     cx="228.72308"
     cy="127.07946"
     r="1" />
</svg>
