<?xml version="1.0" encoding="UTF-8" standalone="no"?>
<svg
   width="236mm"
   height="303mm"
   viewBox="0 0 236 303"
   version="1.1"
   preserveAspectRatio="xMidYMid meet"
   id="svg34"
   sodipodi:docname="new_1.svg"
   inkscape:version="1.2.1 (9c6d41e410, 2022-07-14)"
   xmlns:inkscape="http://www.inkscape.org/namespaces/inkscape"
   xmlns:sodipodi="http://sodipodi.sourceforge.net/DTD/sodipodi-0.dtd"
   xmlns="http://www.w3.org/2000/svg"
   xmlns:svg="http://www.w3.org/2000/svg">
  <defs
     id="defs38" />
  <sodipodi:namedview
     id="namedview36"
     pagecolor="#ffffff"
     bordercolor="#000000"
     borderopacity="0.25"
     inkscape:showpageshadow="2"
     inkscape:pageopacity="0.0"
     inkscape:pagecheckerboard="0"
     inkscape:deskcolor="#d1d1d1"
     inkscape:document-units="mm"
     showgrid="false"
     inkscape:zoom="0.68048395"
     inkscape:cx="571.65198"
     inkscape:cy="582.67355"
     inkscape:window-width="1500"
     inkscape:window-height="930"
     inkscape:window-x="-6"
     inkscape:window-y="-6"
     inkscape:window-maximized="1"
     inkscape:current-layer="svg34" />
  <g
     id="svgGroup"
     stroke-linecap="round"
     fill-rule="evenodd"
     font-size="9pt"
     stroke="#000"
     stroke-width="0.25mm"
     fill="none"
     style="stroke:#000;stroke-width:0.25mm;fill:none">
    <path
       d="M 0 153 L 0 176.795 L 2 176.795 L 2 191.425 L 0 191.425 L 0 206.055 L 2 206.055 L 2 220.685 L 0 220.685 L 0 235.315 L 2 235.315 L 2 249.945 L 0 249.945 L 0 264.575 L 2 264.575 L 2 279.205 L 0 279.205 L 0 293.835 L 0 303 L 13.425 303 L 13.425 301 L 28.055 301 L 28.055 303 L 42.685 303 L 42.685 301 L 57.315 301 L 57.315 303 L 71.945 303 L 71.945 301 L 86.575 301 L 86.575 303 L 100 303 L 100 279.205 L 98 279.205 L 98 264.575 L 100 264.575 L 100 249.945 L 98 249.945 L 98 235.315 L 100 235.315 L 100 220.685 L 98 220.685 L 98 206.055 L 100 206.055 L 100 191.425 L 98 191.425 L 98 176.795 L 100 176.795 L 100 162.165 L 100 153 L 86.575 153 L 86.575 155 L 71.945 155 L 71.945 153 L 57.315 153 L 57.315 155 L 42.685 155 L 42.685 153 L 28.055 153 L 28.055 155 L 13.425 155 L 13.425 153 L 0 153 Z"
       id="front_outsideCutPath"
       stroke="#FF0000"
       stroke-width="0.1"
       style="stroke:#FF0000;stroke-width:0.1"
       vector-effect="non-scaling-stroke" />
    <path
       d="M 64.575 235.553 L 62.954 235.553 L 62.954 228.63 Q 62.954 227.796 62.712 227.231 A 1.928 1.928 0 0 0 62.358 226.677 A 1.828 1.828 0 0 0 61.609 226.198 Q 61.314 226.094 60.952 226.055 A 4.298 4.298 0 0 0 60.493 226.032 Q 59.387 226.032 58.67 226.426 A 2.286 2.286 0 0 0 58.032 226.94 A 2.65 2.65 0 0 0 57.572 227.746 Q 57.294 228.484 57.257 229.586 A 10.385 10.385 0 0 0 57.251 229.938 L 57.251 235.553 L 55.63 235.553 L 55.63 224.85 L 56.948 224.85 L 57.212 226.315 L 57.29 226.315 A 3.283 3.283 0 0 1 58.576 225.145 A 3.947 3.947 0 0 1 58.687 225.09 A 4.39 4.39 0 0 1 60.249 224.673 A 5.308 5.308 0 0 1 60.688 224.655 Q 61.971 224.655 62.832 225.065 A 2.913 2.913 0 0 1 63.599 225.588 Q 64.575 226.52 64.575 228.571 L 64.575 235.553 Z M 33.433 224.85 L 33.433 226.11 L 30.708 226.11 L 30.708 235.553 L 29.087 235.553 L 29.087 226.11 L 27.173 226.11 L 27.173 225.378 L 29.087 224.792 L 29.087 224.196 Q 29.087 220.79 31.656 220.325 A 4.927 4.927 0 0 1 32.534 220.251 Q 33.195 220.251 34.032 220.457 A 10.494 10.494 0 0 1 34.526 220.593 L 34.106 221.891 A 7.872 7.872 0 0 0 33.494 221.719 Q 32.941 221.589 32.505 221.589 A 2.186 2.186 0 0 0 31.978 221.648 A 1.404 1.404 0 0 0 31.147 222.199 A 1.876 1.876 0 0 0 30.9 222.699 Q 30.735 223.187 30.712 223.913 A 7.654 7.654 0 0 0 30.708 224.157 L 30.708 224.85 L 33.433 224.85 Z M 72.827 234.216 L 72.827 235.456 A 1.595 1.595 0 0 1 72.638 235.531 Q 72.436 235.598 72.148 235.649 A 6.063 6.063 0 0 1 72.051 235.666 Q 71.572 235.743 71.183 235.748 A 4.156 4.156 0 0 1 71.128 235.749 A 4.234 4.234 0 0 1 69.88 235.581 Q 68.509 235.158 68.15 233.668 A 5.096 5.096 0 0 1 68.022 232.477 L 68.022 226.11 L 66.489 226.11 L 66.489 225.329 L 68.022 224.655 L 68.706 222.37 L 69.644 222.37 L 69.644 224.85 L 72.749 224.85 L 72.749 226.11 L 69.644 226.11 L 69.644 232.409 A 3.264 3.264 0 0 0 69.691 232.982 Q 69.747 233.297 69.87 233.546 A 1.572 1.572 0 0 0 70.103 233.893 A 1.506 1.506 0 0 0 71.028 234.386 A 2.167 2.167 0 0 0 71.362 234.411 A 5.324 5.324 0 0 0 72.142 234.355 A 4.914 4.914 0 0 0 72.192 234.347 A 8.77 8.77 0 0 0 72.426 234.307 Q 72.65 234.266 72.805 234.222 A 2.43 2.43 0 0 0 72.827 234.216 Z M 41.548 224.772 L 41.323 226.276 A 7.145 7.145 0 0 0 40.809 226.181 Q 40.553 226.144 40.325 226.134 A 3.802 3.802 0 0 0 40.151 226.13 A 2.809 2.809 0 0 0 38.076 227.026 A 3.843 3.843 0 0 0 37.93 227.184 A 3.702 3.702 0 0 0 37.037 229.263 A 4.921 4.921 0 0 0 37.007 229.811 L 37.007 235.553 L 35.386 235.553 L 35.386 224.85 L 36.724 224.85 L 36.909 226.833 L 36.987 226.833 A 5.474 5.474 0 0 1 37.599 225.958 A 4.182 4.182 0 0 1 38.423 225.221 Q 39.263 224.655 40.269 224.655 A 7.442 7.442 0 0 1 40.935 224.683 A 5.432 5.432 0 0 1 41.548 224.772 Z M 52.639 231.821 A 8.374 8.374 0 0 0 52.788 230.192 A 9.514 9.514 0 0 0 52.785 229.935 Q 52.721 227.567 51.465 226.149 A 4.244 4.244 0 0 0 49.495 224.879 A 5.447 5.447 0 0 0 47.896 224.655 A 6.296 6.296 0 0 0 46.765 224.752 A 4.288 4.288 0 0 0 44.263 226.115 Q 43.394 227.085 43.102 228.564 A 8.417 8.417 0 0 0 42.954 230.192 A 8.11 8.11 0 0 0 43.056 231.506 A 5.997 5.997 0 0 0 43.56 233.141 A 5.328 5.328 0 0 0 43.678 233.372 A 4.389 4.389 0 0 0 45.278 235.075 A 4.514 4.514 0 0 0 46.314 235.536 A 5.206 5.206 0 0 0 47.827 235.749 A 6.295 6.295 0 0 0 48.926 235.657 A 4.322 4.322 0 0 0 51.47 234.279 Q 52.345 233.303 52.639 231.821 Z M 44.634 230.192 Q 44.634 232.243 45.454 233.317 A 2.657 2.657 0 0 0 47.185 234.336 A 4.026 4.026 0 0 0 47.866 234.391 A 3.765 3.765 0 0 0 48.86 234.268 A 2.62 2.62 0 0 0 50.283 233.322 Q 51.108 232.253 51.108 230.192 Q 51.108 228.883 50.769 227.977 A 3.338 3.338 0 0 0 50.283 227.092 A 2.667 2.667 0 0 0 48.625 226.102 A 4.089 4.089 0 0 0 47.847 226.032 A 3.858 3.858 0 0 0 46.886 226.145 A 2.582 2.582 0 0 0 45.444 227.077 Q 44.861 227.829 44.697 229.113 A 8.566 8.566 0 0 0 44.634 230.192 Z"
       id="front_labelLayer"
       stroke="#777777"
       fill="#777777"
       style="stroke:#777777;fill:#777777"
       vector-effect="non-scaling-stroke" />
    <path
       d="M 105 153 L 105 176.795 L 103 176.795 L 103 191.425 L 105 191.425 L 105 206.055 L 103 206.055 L 103 220.685 L 105 220.685 L 105 235.315 L 103 235.315 L 103 249.945 L 105 249.945 L 105 264.575 L 103 264.575 L 103 279.205 L 105 279.205 L 105 293.835 L 105 303 L 110.685 303 L 110.685 301 L 125.315 301 L 125.315 303 L 131 303 L 131 279.205 L 133 279.205 L 133 264.575 L 131 264.575 L 131 249.945 L 133 249.945 L 133 235.315 L 131 235.315 L 131 220.685 L 133 220.685 L 133 206.055 L 131 206.055 L 131 191.425 L 133 191.425 L 133 176.795 L 131 176.795 L 131 162.165 L 131 153 L 125.315 153 L 125.315 155 L 110.685 155 L 110.685 153 L 105 153 Z"
       id="left_outsideCutPath"
       stroke="#FF0000"
       stroke-width="0.1"
       style="stroke:#FF0000;stroke-width:0.1"
       vector-effect="non-scaling-stroke" />
    <path
       d="M 120.134 227.055 L 120.134 227.433 L 119.317 227.433 L 119.317 230.266 L 118.831 230.266 L 118.831 227.433 L 118.256 227.433 L 118.256 227.213 L 118.831 227.038 L 118.831 226.859 Q 118.831 225.837 119.601 225.697 A 1.478 1.478 0 0 1 119.865 225.675 A 1.566 1.566 0 0 1 120.086 225.692 Q 120.194 225.708 120.314 225.737 A 3.148 3.148 0 0 1 120.462 225.778 L 120.336 226.167 A 2.362 2.362 0 0 0 120.153 226.116 Q 119.987 226.077 119.856 226.077 A 0.656 0.656 0 0 0 119.698 226.094 A 0.421 0.421 0 0 0 119.449 226.26 Q 119.317 226.443 119.317 226.847 L 119.317 227.055 L 120.134 227.055 Z M 117.858 228.441 L 117.858 228.748 L 115.646 228.748 A 1.952 1.952 0 0 0 115.68 229.075 Q 115.715 229.253 115.786 229.394 A 0.913 0.913 0 0 0 115.932 229.607 A 0.884 0.884 0 0 0 116.396 229.868 A 1.339 1.339 0 0 0 116.695 229.9 A 2.569 2.569 0 0 0 117.657 229.709 A 2.943 2.943 0 0 0 117.72 229.683 L 117.72 230.117 Q 117.462 230.228 117.232 230.276 Q 117.054 230.314 116.817 230.322 A 3.962 3.962 0 0 1 116.677 230.325 A 1.89 1.89 0 0 1 116.204 230.269 A 1.338 1.338 0 0 1 115.554 229.891 A 1.431 1.431 0 0 1 115.211 229.262 Q 115.142 229.003 115.142 228.687 Q 115.142 228.054 115.396 227.633 A 1.44 1.44 0 0 1 115.524 227.454 A 1.246 1.246 0 0 1 116.433 227.001 A 1.719 1.719 0 0 1 116.551 226.997 A 1.482 1.482 0 0 1 116.968 227.052 A 1.127 1.127 0 0 1 117.506 227.393 A 1.36 1.36 0 0 1 117.814 228.015 A 1.979 1.979 0 0 1 117.858 228.441 Z M 122.197 229.865 L 122.197 230.237 A 0.478 0.478 0 0 1 122.14 230.259 Q 122.08 230.279 121.993 230.295 A 1.819 1.819 0 0 1 121.964 230.3 A 2.108 2.108 0 0 1 121.826 230.318 Q 121.752 230.325 121.687 230.325 A 1.27 1.27 0 0 1 121.313 230.274 Q 120.901 230.147 120.794 229.7 A 1.529 1.529 0 0 1 120.755 229.343 L 120.755 227.433 L 120.295 227.433 L 120.295 227.199 L 120.755 226.997 L 120.96 226.311 L 121.242 226.311 L 121.242 227.055 L 122.173 227.055 L 122.173 227.433 L 121.242 227.433 L 121.242 229.323 A 0.979 0.979 0 0 0 121.256 229.495 Q 121.273 229.589 121.31 229.664 A 0.472 0.472 0 0 0 121.379 229.768 A 0.452 0.452 0 0 0 121.657 229.916 A 0.65 0.65 0 0 0 121.757 229.923 Q 121.886 229.923 122.006 229.904 A 2.631 2.631 0 0 0 122.077 229.892 Q 122.144 229.88 122.19 229.867 A 0.726 0.726 0 0 0 122.197 229.865 Z M 114.29 225.707 L 114.29 230.266 L 113.803 230.266 L 113.803 225.707 L 114.29 225.707 Z M 115.658 228.353 L 117.336 228.353 Q 117.336 228.042 117.243 227.829 A 0.752 0.752 0 0 0 117.131 227.648 A 0.666 0.666 0 0 0 116.73 227.42 A 0.999 0.999 0 0 0 116.545 227.404 A 0.959 0.959 0 0 0 116.268 227.442 A 0.741 0.741 0 0 0 115.929 227.656 A 0.961 0.961 0 0 0 115.738 227.978 Q 115.689 228.11 115.667 228.27 A 1.837 1.837 0 0 0 115.658 228.353 Z"
       id="left_labelLayer"
       stroke="#777777"
       fill="#777777"
       style="stroke:#777777;fill:#777777"
       vector-effect="non-scaling-stroke" />
    <path
       d="M 138 275 L 138 280.685 L 136 280.685 L 136 295.315 L 138 295.315 L 138 301 L 149.425 301 L 149.425 303 L 164.055 303 L 164.055 301 L 178.685 301 L 178.685 303 L 193.315 303 L 193.315 301 L 207.945 301 L 207.945 303 L 222.575 303 L 222.575 301 L 234 301 L 234 295.315 L 236 295.315 L 236 280.685 L 234 280.685 L 234 275 L 222.575 275 L 222.575 273 L 207.945 273 L 207.945 275 L 193.315 275 L 193.315 273 L 178.685 273 L 178.685 275 L 164.055 275 L 164.055 273 L 149.425 273 L 149.425 275 L 138 275 Z"
       id="top_outsideCutPath"
       stroke="#FF0000"
       stroke-width="0.1"
       style="stroke:#FF0000;stroke-width:0.1"
       vector-effect="non-scaling-stroke" />
    <path
       d="M 188.156 288.844 L 188.121 288.844 A 4.602 4.602 0 0 1 188.151 289.184 A 3.857 3.857 0 0 1 188.156 289.377 L 188.156 290.698 L 187.67 290.698 L 187.67 286.046 L 188.065 286.046 L 188.133 286.485 L 188.156 286.485 A 1.309 1.309 0 0 1 188.346 286.27 A 1.012 1.012 0 0 1 188.593 286.104 A 1.218 1.218 0 0 1 188.942 286.002 A 1.576 1.576 0 0 1 189.164 285.987 A 1.491 1.491 0 0 1 189.585 286.044 A 1.102 1.102 0 0 1 190.15 286.424 Q 190.434 286.781 190.485 287.372 A 3.167 3.167 0 0 1 190.497 287.648 A 2.851 2.851 0 0 1 190.459 288.128 Q 190.382 288.583 190.144 288.877 Q 189.791 289.315 189.164 289.315 A 1.475 1.475 0 0 1 188.793 289.27 A 1.283 1.283 0 0 1 188.591 289.2 A 1.077 1.077 0 0 1 188.156 288.844 Z M 183.404 288.855 L 183.404 289.228 A 0.478 0.478 0 0 1 183.348 289.25 Q 183.287 289.27 183.2 289.286 A 1.819 1.819 0 0 1 183.171 289.291 A 2.108 2.108 0 0 1 183.034 289.308 Q 182.96 289.315 182.895 289.315 A 1.27 1.27 0 0 1 182.52 289.265 Q 182.109 289.138 182.001 288.691 A 1.529 1.529 0 0 1 181.963 288.334 L 181.963 286.424 L 181.503 286.424 L 181.503 286.189 L 181.963 285.987 L 182.168 285.302 L 182.449 285.302 L 182.449 286.046 L 183.381 286.046 L 183.381 286.424 L 182.449 286.424 L 182.449 288.313 A 0.979 0.979 0 0 0 182.463 288.485 Q 182.48 288.58 182.517 288.655 A 0.472 0.472 0 0 0 182.587 288.759 A 0.452 0.452 0 0 0 182.865 288.907 A 0.65 0.65 0 0 0 182.965 288.914 Q 183.094 288.914 183.214 288.895 A 2.631 2.631 0 0 0 183.284 288.883 Q 183.351 288.87 183.398 288.857 A 0.726 0.726 0 0 0 183.404 288.855 Z M 186.773 288.137 A 2.512 2.512 0 0 0 186.817 287.648 A 2.854 2.854 0 0 0 186.816 287.571 Q 186.797 286.861 186.42 286.436 Q 186.023 285.987 185.35 285.987 A 1.889 1.889 0 0 0 185.01 286.016 A 1.286 1.286 0 0 0 184.26 286.425 A 1.344 1.344 0 0 0 184.095 286.654 Q 183.968 286.876 183.911 287.16 A 2.525 2.525 0 0 0 183.867 287.648 A 2.433 2.433 0 0 0 183.898 288.043 A 1.799 1.799 0 0 0 184.049 288.533 Q 184.23 288.911 184.564 289.113 A 1.354 1.354 0 0 0 184.875 289.251 A 1.562 1.562 0 0 0 185.329 289.315 Q 186.026 289.315 186.422 288.875 Q 186.684 288.582 186.773 288.137 Z M 184.371 287.648 A 2.463 2.463 0 0 0 184.395 288 Q 184.447 288.363 184.617 288.586 A 0.797 0.797 0 0 0 185.136 288.892 A 1.208 1.208 0 0 0 185.341 288.908 A 1.13 1.13 0 0 0 185.639 288.871 A 0.786 0.786 0 0 0 186.066 288.587 A 1.044 1.044 0 0 0 186.228 288.271 Q 186.276 288.124 186.297 287.946 A 2.562 2.562 0 0 0 186.313 287.648 A 2.427 2.427 0 0 0 186.29 287.303 Q 186.238 286.939 186.066 286.718 A 0.8 0.8 0 0 0 185.569 286.422 A 1.227 1.227 0 0 0 185.335 286.4 A 1.157 1.157 0 0 0 185.047 286.434 A 0.775 0.775 0 0 0 184.614 286.714 A 1.006 1.006 0 0 0 184.458 287.016 Q 184.412 287.155 184.39 287.325 A 2.57 2.57 0 0 0 184.371 287.648 Z M 188.156 287.54 L 188.156 287.648 Q 188.156 288.223 188.319 288.52 A 0.734 0.734 0 0 0 188.382 288.617 A 0.706 0.706 0 0 0 188.74 288.858 Q 188.859 288.896 189.005 288.905 A 1.564 1.564 0 0 0 189.105 288.908 Q 189.505 288.908 189.739 288.597 A 0.969 0.969 0 0 0 189.757 288.571 Q 189.993 288.234 189.993 287.643 Q 189.993 287.248 189.892 286.975 A 1.031 1.031 0 0 0 189.757 286.721 Q 189.521 286.4 189.094 286.4 A 1.401 1.401 0 0 0 188.832 286.423 Q 188.538 286.479 188.382 286.673 Q 188.176 286.928 188.158 287.465 A 3.095 3.095 0 0 0 188.156 287.54 Z"
       id="top_labelLayer"
       stroke="#777777"
       fill="#777777"
       style="stroke:#777777;fill:#777777"
       vector-effect="non-scaling-stroke" />
    <path
       d="M 0 0 L 0 23.795 L 2 23.795 L 2 38.425 L 0 38.425 L 0 53.055 L 2 53.055 L 2 67.685 L 0 67.685 L 0 82.315 L 2 82.315 L 2 96.945 L 0 96.945 L 0 111.575 L 2 111.575 L 2 126.205 L 0 126.205 L 0 140.835 L 0 150 L 13.425 150 L 13.425 148 L 28.055 148 L 28.055 150 L 42.685 150 L 42.685 148 L 57.315 148 L 57.315 150 L 71.945 150 L 71.945 148 L 86.575 148 L 86.575 150 L 100 150 L 100 126.205 L 98 126.205 L 98 111.575 L 100 111.575 L 100 96.945 L 98 96.945 L 98 82.315 L 100 82.315 L 100 67.685 L 98 67.685 L 98 53.055 L 100 53.055 L 100 38.425 L 98 38.425 L 98 23.795 L 100 23.795 L 100 9.165 L 100 0 L 86.575 0 L 86.575 2 L 71.945 2 L 71.945 0 L 57.315 0 L 57.315 2 L 42.685 2 L 42.685 0 L 28.055 0 L 28.055 2 L 13.425 2 L 13.425 0 L 0 0 Z"
       id="back_outsideCutPath"
       stroke="#FF0000"
       stroke-width="0.1"
       style="stroke:#FF0000;stroke-width:0.1"
       vector-effect="non-scaling-stroke" />
    <path
       d="M 63.691 77.021 L 63.77 77.021 Q 64.189 76.426 65.049 75.459 L 68.506 71.797 L 70.43 71.797 L 66.094 76.357 L 70.732 82.5 L 68.77 82.5 L 64.99 77.441 L 63.77 78.496 L 63.77 82.5 L 62.168 82.5 L 62.168 67.305 L 63.77 67.305 L 63.77 75.361 A 10.803 10.803 0 0 1 63.765 75.666 Q 63.75 76.179 63.691 77.021 Z M 30.889 81.123 L 30.771 81.123 L 30.43 82.5 L 29.268 82.5 L 29.268 67.305 L 30.889 67.305 L 30.889 70.996 Q 30.889 72.196 30.816 73.159 A 20.218 20.218 0 0 1 30.811 73.223 L 30.889 73.223 A 3.686 3.686 0 0 1 33.579 71.66 A 5.537 5.537 0 0 1 34.248 71.621 A 4.955 4.955 0 0 1 35.642 71.807 A 3.709 3.709 0 0 1 37.524 73.061 A 4.777 4.777 0 0 1 38.362 74.675 Q 38.568 75.339 38.645 76.135 A 10.405 10.405 0 0 1 38.691 77.139 Q 38.691 79.775 37.515 81.235 A 3.838 3.838 0 0 1 34.787 82.669 A 5.498 5.498 0 0 1 34.248 82.695 A 4.917 4.917 0 0 1 33.012 82.545 A 4.278 4.278 0 0 1 32.339 82.309 Q 31.475 81.924 30.889 81.123 Z M 49.307 82.5 L 48.105 82.5 L 47.783 80.976 L 47.705 80.976 A 6.72 6.72 0 0 1 47.161 81.585 Q 46.869 81.873 46.577 82.073 A 2.987 2.987 0 0 1 46.108 82.339 Q 45.313 82.695 44.121 82.695 A 4.975 4.975 0 0 1 43.109 82.598 Q 42.219 82.413 41.626 81.875 A 2.665 2.665 0 0 1 40.822 80.47 A 4.079 4.079 0 0 1 40.723 79.541 Q 40.723 76.403 45.579 76.156 A 15.834 15.834 0 0 1 45.908 76.142 L 47.725 76.084 L 47.725 75.42 A 4.656 4.656 0 0 0 47.679 74.747 Q 47.629 74.402 47.522 74.126 A 1.809 1.809 0 0 0 47.183 73.559 A 1.646 1.646 0 0 0 46.509 73.12 Q 46.239 73.022 45.904 72.983 A 4.005 4.005 0 0 0 45.449 72.959 Q 44.374 72.959 43.071 73.489 A 10.857 10.857 0 0 0 42.422 73.779 L 41.924 72.539 A 7.474 7.474 0 0 1 43.366 71.946 A 8.508 8.508 0 0 1 43.657 71.865 A 7.507 7.507 0 0 1 45.547 71.621 A 6.847 6.847 0 0 1 46.59 71.695 Q 47.733 71.872 48.384 72.471 Q 49.107 73.137 49.264 74.434 A 6.379 6.379 0 0 1 49.307 75.195 L 49.307 82.5 Z M 59.785 72.158 L 59.287 73.535 A 7.212 7.212 0 0 0 58.505 73.275 A 8.613 8.613 0 0 0 58.115 73.179 Q 57.572 73.057 57.136 73.04 A 3.593 3.593 0 0 0 56.992 73.037 Q 53.73 73.037 53.73 77.197 A 7.851 7.851 0 0 0 53.808 78.34 Q 53.979 79.499 54.526 80.224 A 2.575 2.575 0 0 0 56.194 81.221 A 3.922 3.922 0 0 0 56.885 81.279 A 6.786 6.786 0 0 0 58.757 81.007 A 8.379 8.379 0 0 0 59.629 80.703 L 59.629 82.139 A 4.611 4.611 0 0 1 58.501 82.538 Q 57.98 82.653 57.373 82.684 A 8.89 8.89 0 0 1 56.924 82.695 A 6.059 6.059 0 0 1 55.45 82.526 A 4.108 4.108 0 0 1 53.325 81.265 Q 52.224 80.029 52.074 77.908 A 9.802 9.802 0 0 1 52.051 77.217 A 8.945 8.945 0 0 1 52.189 75.59 Q 52.357 74.683 52.729 73.968 A 4.469 4.469 0 0 1 53.345 73.066 A 4.198 4.198 0 0 1 55.643 71.745 A 6.363 6.363 0 0 1 57.031 71.601 A 7.316 7.316 0 0 1 58.574 71.767 Q 59.337 71.932 59.775 72.153 A 2.415 2.415 0 0 1 59.785 72.158 Z M 34.014 72.978 A 4.555 4.555 0 0 0 33.131 73.058 Q 32.142 73.254 31.621 73.931 A 2.775 2.775 0 0 0 31.219 74.696 Q 30.948 75.455 30.899 76.61 A 12.49 12.49 0 0 0 30.889 77.139 A 10.719 10.719 0 0 0 30.942 78.246 Q 31.058 79.364 31.431 80.044 A 2.445 2.445 0 0 0 31.641 80.366 A 2.352 2.352 0 0 0 32.834 81.171 Q 33.365 81.338 34.053 81.338 Q 35.547 81.338 36.279 80.249 A 3.721 3.721 0 0 0 36.74 79.253 Q 36.884 78.78 36.952 78.207 A 9.289 9.289 0 0 0 37.012 77.119 A 9.578 9.578 0 0 0 36.954 76.028 Q 36.816 74.834 36.354 74.113 A 2.689 2.689 0 0 0 36.279 74.004 Q 35.547 72.978 34.014 72.978 Z M 47.686 78.203 L 47.686 77.236 L 46.064 77.305 Q 44.45 77.362 43.588 77.742 A 2.49 2.49 0 0 0 43.276 77.905 A 1.73 1.73 0 0 0 42.452 79.16 A 2.56 2.56 0 0 0 42.422 79.56 A 2.317 2.317 0 0 0 42.479 80.092 Q 42.575 80.5 42.833 80.781 A 1.444 1.444 0 0 0 42.954 80.898 A 1.765 1.765 0 0 0 43.615 81.249 Q 43.979 81.357 44.443 81.357 Q 45.957 81.357 46.821 80.527 Q 47.681 79.702 47.686 78.219 A 5.163 5.163 0 0 0 47.686 78.203 Z"
       id="back_labelLayer"
       stroke="#777777"
       fill="#777777"
       style="stroke:#777777;fill:#777777"
       vector-effect="non-scaling-stroke" />
    <path
       d="M 105 0 L 105 23.795 L 103 23.795 L 103 38.425 L 105 38.425 L 105 53.055 L 103 53.055 L 103 67.685 L 105 67.685 L 105 82.315 L 103 82.315 L 103 96.945 L 105 96.945 L 105 111.575 L 103 111.575 L 103 126.205 L 105 126.205 L 105 140.835 L 105 150 L 110.685 150 L 110.685 148 L 125.315 148 L 125.315 150 L 131 150 L 131 126.205 L 133 126.205 L 133 111.575 L 131 111.575 L 131 96.945 L 133 96.945 L 133 82.315 L 131 82.315 L 131 67.685 L 133 67.685 L 133 53.055 L 131 53.055 L 131 38.425 L 133 38.425 L 133 23.795 L 131 23.795 L 131 9.165 L 131 0 L 125.315 0 L 125.315 2 L 110.685 2 L 110.685 0 L 105 0 Z"
       id="right_outsideCutPath"
       stroke="#FF0000"
       stroke-width="0.1"
       style="stroke:#FF0000;stroke-width:0.1"
       vector-effect="non-scaling-stroke" />
    <path
       d="M 121.731 76.559 L 121.245 76.559 L 121.245 74.481 A 1.375 1.375 0 0 0 121.229 74.266 Q 121.192 74.031 121.066 73.895 A 0.548 0.548 0 0 0 120.841 73.752 Q 120.753 73.721 120.644 73.709 A 1.289 1.289 0 0 0 120.506 73.702 A 1.472 1.472 0 0 0 120.231 73.726 Q 120.079 73.755 119.961 73.82 A 0.681 0.681 0 0 0 119.767 73.978 A 0.809 0.809 0 0 0 119.629 74.221 Q 119.534 74.478 119.534 74.88 L 119.534 76.559 L 119.047 76.559 L 119.047 72 L 119.534 72 L 119.534 73.38 A 4.375 4.375 0 0 1 119.531 73.548 Q 119.528 73.627 119.522 73.694 A 1.902 1.902 0 0 1 119.51 73.793 L 119.54 73.793 A 0.972 0.972 0 0 1 119.88 73.465 A 1.187 1.187 0 0 1 119.948 73.428 A 1.248 1.248 0 0 1 120.358 73.307 A 1.578 1.578 0 0 1 120.553 73.295 A 1.973 1.973 0 0 1 120.885 73.321 Q 121.232 73.38 121.437 73.575 A 0.847 0.847 0 0 1 121.645 73.903 Q 121.696 74.039 121.716 74.208 A 2.103 2.103 0 0 1 121.731 74.464 L 121.731 76.559 Z M 117.278 73.348 L 118.388 73.348 L 118.388 73.655 L 117.793 73.726 A 0.79 0.79 0 0 1 117.862 73.827 Q 117.892 73.88 117.919 73.943 A 1.499 1.499 0 0 1 117.94 73.994 A 0.936 0.936 0 0 1 117.995 74.217 A 1.202 1.202 0 0 1 118.004 74.367 A 1.115 1.115 0 0 1 117.953 74.713 A 0.902 0.902 0 0 1 117.682 75.12 A 1.079 1.079 0 0 1 117.258 75.344 Q 117.052 75.401 116.797 75.401 A 1.563 1.563 0 0 1 116.617 75.391 A 1.32 1.32 0 0 1 116.528 75.378 Q 116.351 75.472 116.274 75.593 A 0.366 0.366 0 0 0 116.217 75.791 Q 116.217 75.923 116.326 75.986 A 0.341 0.341 0 0 0 116.401 76.017 Q 116.481 76.04 116.601 76.046 A 1.85 1.85 0 0 0 116.698 76.049 L 117.266 76.049 A 1.991 1.991 0 0 1 117.568 76.07 Q 117.727 76.095 117.854 76.147 A 0.879 0.879 0 0 1 118.067 76.269 A 0.711 0.711 0 0 1 118.332 76.722 A 1.069 1.069 0 0 1 118.347 76.907 A 1.053 1.053 0 0 1 118.287 77.271 Q 118.187 77.545 117.919 77.72 A 1.458 1.458 0 0 1 117.543 77.891 Q 117.184 78 116.671 78 Q 116.258 78 115.969 77.899 A 1.13 1.13 0 0 1 115.7 77.766 A 0.775 0.775 0 0 1 115.45 77.494 Q 115.359 77.325 115.359 77.103 Q 115.359 76.811 115.546 76.597 A 0.849 0.849 0 0 1 115.838 76.384 A 1.204 1.204 0 0 1 116.074 76.307 A 0.505 0.505 0 0 1 115.878 76.148 A 0.599 0.599 0 0 1 115.867 76.134 A 0.451 0.451 0 0 1 115.784 75.89 A 0.558 0.558 0 0 1 115.784 75.861 A 0.556 0.556 0 0 1 115.812 75.682 A 0.493 0.493 0 0 1 115.877 75.554 Q 115.948 75.454 116.081 75.359 A 1.528 1.528 0 0 1 116.173 75.299 A 0.853 0.853 0 0 1 115.803 75.002 A 1.057 1.057 0 0 1 115.768 74.95 A 1.005 1.005 0 0 1 115.613 74.466 A 1.227 1.227 0 0 1 115.611 74.388 A 1.405 1.405 0 0 1 115.648 74.055 A 0.924 0.924 0 0 1 115.927 73.575 A 1.033 1.033 0 0 1 116.324 73.356 Q 116.481 73.308 116.671 73.294 A 2.148 2.148 0 0 1 116.824 73.289 A 1.864 1.864 0 0 1 117.07 73.305 A 1.42 1.42 0 0 1 117.278 73.348 Z M 124.207 76.157 L 124.207 76.529 A 0.478 0.478 0 0 1 124.15 76.552 Q 124.089 76.572 124.003 76.587 A 1.819 1.819 0 0 1 123.974 76.592 A 2.108 2.108 0 0 1 123.836 76.61 Q 123.762 76.617 123.697 76.617 A 1.27 1.27 0 0 1 123.322 76.567 Q 122.911 76.44 122.803 75.993 A 1.529 1.529 0 0 1 122.765 75.636 L 122.765 73.726 L 122.305 73.726 L 122.305 73.491 L 122.765 73.289 L 122.97 72.603 L 123.251 72.603 L 123.251 73.348 L 124.183 73.348 L 124.183 73.726 L 123.251 73.726 L 123.251 75.615 A 0.979 0.979 0 0 0 123.266 75.787 Q 123.282 75.882 123.319 75.956 A 0.472 0.472 0 0 0 123.389 76.061 A 0.452 0.452 0 0 0 123.667 76.208 A 0.65 0.65 0 0 0 123.767 76.216 Q 123.896 76.216 124.016 76.197 A 2.631 2.631 0 0 0 124.086 76.185 Q 124.153 76.172 124.2 76.159 A 0.726 0.726 0 0 0 124.207 76.157 Z M 113.642 73.324 L 113.575 73.775 Q 113.409 73.739 113.275 73.733 A 1.141 1.141 0 0 0 113.223 73.731 A 0.843 0.843 0 0 0 112.601 74 A 1.153 1.153 0 0 0 112.557 74.048 A 1.111 1.111 0 0 0 112.289 74.671 A 1.476 1.476 0 0 0 112.28 74.836 L 112.28 76.559 L 111.793 76.559 L 111.793 73.348 L 112.195 73.348 L 112.25 73.942 L 112.274 73.942 A 1.642 1.642 0 0 1 112.458 73.68 A 1.255 1.255 0 0 1 112.705 73.459 A 0.969 0.969 0 0 1 113.258 73.289 A 2.233 2.233 0 0 1 113.458 73.298 A 1.63 1.63 0 0 1 113.642 73.324 Z M 114.729 73.348 L 114.729 76.559 L 114.243 76.559 L 114.243 73.348 L 114.729 73.348 Z M 117.111 76.485 L 116.528 76.485 A 1.118 1.118 0 0 0 116.326 76.502 Q 116.136 76.537 116.012 76.644 Q 115.828 76.802 115.828 77.098 A 0.488 0.488 0 0 0 115.86 77.279 Q 115.906 77.396 116.019 77.474 A 0.571 0.571 0 0 0 116.047 77.493 A 0.779 0.779 0 0 0 116.239 77.575 Q 116.419 77.628 116.673 77.628 A 2.498 2.498 0 0 0 116.677 77.628 Q 117.224 77.628 117.518 77.482 A 0.808 0.808 0 0 0 117.584 77.445 A 0.709 0.709 0 0 0 117.749 77.307 A 0.532 0.532 0 0 0 117.878 76.948 A 0.658 0.658 0 0 0 117.866 76.818 Q 117.851 76.742 117.817 76.686 A 0.307 0.307 0 0 0 117.717 76.586 Q 117.595 76.509 117.307 76.491 A 3.094 3.094 0 0 0 117.111 76.485 Z M 116.091 74.376 A 0.949 0.949 0 0 0 116.111 74.575 Q 116.152 74.768 116.282 74.886 Q 116.472 75.059 116.812 75.059 A 1.059 1.059 0 0 0 117.089 75.025 Q 117.524 74.907 117.524 74.367 Q 117.524 73.793 117.07 73.674 A 1.058 1.058 0 0 0 116.803 73.644 Q 116.541 73.644 116.371 73.752 A 0.56 0.56 0 0 0 116.276 73.828 Q 116.119 73.985 116.096 74.27 A 1.279 1.279 0 0 0 116.091 74.376 Z M 114.209 72.388 A 0.539 0.539 0 0 0 114.202 72.478 Q 114.202 72.642 114.284 72.722 A 0.273 0.273 0 0 0 114.382 72.785 A 0.309 0.309 0 0 0 114.489 72.803 Q 114.606 72.803 114.691 72.722 A 0.237 0.237 0 0 0 114.737 72.661 Q 114.758 72.621 114.768 72.57 A 0.503 0.503 0 0 0 114.776 72.478 Q 114.776 72.397 114.756 72.338 A 0.246 0.246 0 0 0 114.691 72.234 Q 114.606 72.155 114.489 72.155 A 0.371 0.371 0 0 0 114.464 72.156 A 0.281 0.281 0 0 0 114.284 72.233 A 0.227 0.227 0 0 0 114.233 72.304 Q 114.216 72.341 114.209 72.388 Z"
       id="right_labelLayer"
       stroke="#777777"
       fill="#777777"
       style="stroke:#777777;fill:#777777"
       vector-effect="non-scaling-stroke" />
    <path
       d="M 138 242 L 138 247.685 L 136 247.685 L 136 262.315 L 138 262.315 L 138 268 L 149.425 268 L 149.425 270 L 164.055 270 L 164.055 268 L 178.685 268 L 178.685 270 L 193.315 270 L 193.315 268 L 207.945 268 L 207.945 270 L 222.575 270 L 222.575 268 L 234 268 L 234 262.315 L 236 262.315 L 236 247.685 L 234 247.685 L 234 242 L 222.575 242 L 222.575 240 L 207.945 240 L 207.945 242 L 193.315 242 L 193.315 240 L 178.685 240 L 178.685 242 L 164.055 242 L 164.055 240 L 149.425 240 L 149.425 242 L 138 242 Z"
       id="bottom_outsideCutPath"
       stroke="#FF0000"
       stroke-width="0.1"
       style="stroke:#FF0000;stroke-width:0.1"
       vector-effect="non-scaling-stroke" />
    <path
       d="M 195.87 257.25 L 195.384 257.25 L 195.384 255.161 A 1.435 1.435 0 0 0 195.369 254.95 Q 195.335 254.72 195.22 254.585 A 0.512 0.512 0 0 0 194.982 254.432 Q 194.897 254.404 194.794 254.396 A 1.129 1.129 0 0 0 194.71 254.393 Q 194.392 254.393 194.19 254.522 A 0.644 0.644 0 0 0 194.039 254.654 A 0.804 0.804 0 0 0 193.903 254.901 Q 193.822 255.127 193.822 255.457 L 193.822 257.25 L 193.336 257.25 L 193.336 255.161 A 1.435 1.435 0 0 0 193.321 254.95 Q 193.287 254.72 193.172 254.585 A 0.51 0.51 0 0 0 192.937 254.433 Q 192.853 254.405 192.75 254.397 A 1.139 1.139 0 0 0 192.659 254.393 Q 192.34 254.393 192.14 254.527 A 0.637 0.637 0 0 0 191.99 254.667 A 0.816 0.816 0 0 0 191.869 254.897 Q 191.79 255.119 191.779 255.451 A 3.386 3.386 0 0 0 191.777 255.565 L 191.777 257.25 L 191.291 257.25 L 191.291 254.039 L 191.687 254.039 L 191.766 254.478 L 191.789 254.478 Q 191.927 254.244 192.177 254.112 Q 192.428 253.98 192.738 253.98 Q 193.205 253.98 193.471 254.189 A 0.83 0.83 0 0 1 193.723 254.525 L 193.746 254.525 A 1.015 1.015 0 0 1 194.129 254.146 A 1.22 1.22 0 0 1 194.162 254.127 A 1.231 1.231 0 0 1 194.614 253.99 A 1.535 1.535 0 0 1 194.783 253.98 A 1.691 1.691 0 0 1 195.09 254.006 Q 195.411 254.066 195.599 254.26 Q 195.796 254.464 195.85 254.845 A 2.231 2.231 0 0 1 195.87 255.155 L 195.87 257.25 Z M 176.616 256.837 L 176.581 256.837 L 176.479 257.25 L 176.13 257.25 L 176.13 252.691 L 176.616 252.691 L 176.616 253.799 A 10.14 10.14 0 0 1 176.611 254.141 Q 176.605 254.303 176.594 254.448 A 6.057 6.057 0 0 1 176.593 254.467 L 176.616 254.467 Q 176.956 253.986 177.624 253.986 A 1.486 1.486 0 0 1 178.042 254.042 A 1.113 1.113 0 0 1 178.607 254.418 Q 178.887 254.764 178.943 255.341 A 3.122 3.122 0 0 1 178.957 255.642 A 2.851 2.851 0 0 1 178.919 256.121 Q 178.842 256.576 178.604 256.871 Q 178.251 257.309 177.624 257.309 A 1.475 1.475 0 0 1 177.253 257.263 A 1.283 1.283 0 0 1 177.051 257.193 A 1.077 1.077 0 0 1 176.616 256.837 Z M 184.907 256.849 L 184.907 257.221 A 0.478 0.478 0 0 1 184.85 257.243 Q 184.79 257.263 184.703 257.279 A 1.819 1.819 0 0 1 184.674 257.284 A 2.108 2.108 0 0 1 184.537 257.301 Q 184.463 257.309 184.397 257.309 A 1.27 1.27 0 0 1 184.023 257.258 Q 183.612 257.131 183.504 256.684 A 1.529 1.529 0 0 1 183.466 256.327 L 183.466 254.417 L 183.006 254.417 L 183.006 254.183 L 183.466 253.98 L 183.671 253.295 L 183.952 253.295 L 183.952 254.039 L 184.884 254.039 L 184.884 254.417 L 183.952 254.417 L 183.952 256.307 A 0.979 0.979 0 0 0 183.966 256.479 Q 183.983 256.573 184.02 256.648 A 0.472 0.472 0 0 0 184.09 256.752 A 0.452 0.452 0 0 0 184.368 256.9 A 0.65 0.65 0 0 0 184.468 256.907 Q 184.597 256.907 184.717 256.888 A 2.631 2.631 0 0 0 184.787 256.876 Q 184.854 256.864 184.901 256.85 A 0.726 0.726 0 0 0 184.907 256.849 Z M 187.025 256.849 L 187.025 257.221 A 0.478 0.478 0 0 1 186.969 257.243 Q 186.908 257.263 186.822 257.279 A 1.819 1.819 0 0 1 186.792 257.284 A 2.108 2.108 0 0 1 186.655 257.301 Q 186.581 257.309 186.516 257.309 A 1.27 1.27 0 0 1 186.141 257.258 Q 185.73 257.131 185.622 256.684 A 1.529 1.529 0 0 1 185.584 256.327 L 185.584 254.417 L 185.124 254.417 L 185.124 254.183 L 185.584 253.98 L 185.789 253.295 L 186.07 253.295 L 186.07 254.039 L 187.002 254.039 L 187.002 254.417 L 186.07 254.417 L 186.07 256.307 A 0.979 0.979 0 0 0 186.084 256.479 Q 186.101 256.573 186.138 256.648 A 0.472 0.472 0 0 0 186.208 256.752 A 0.452 0.452 0 0 0 186.486 256.9 A 0.65 0.65 0 0 0 186.586 256.907 Q 186.715 256.907 186.835 256.888 A 2.631 2.631 0 0 0 186.905 256.876 Q 186.972 256.864 187.019 256.85 A 0.726 0.726 0 0 0 187.025 256.849 Z M 182.533 256.13 A 2.512 2.512 0 0 0 182.578 255.642 A 2.854 2.854 0 0 0 182.577 255.564 Q 182.558 254.854 182.181 254.429 Q 181.784 253.98 181.11 253.98 A 1.889 1.889 0 0 0 180.771 254.01 A 1.286 1.286 0 0 0 180.02 254.418 A 1.344 1.344 0 0 0 179.855 254.647 Q 179.728 254.869 179.672 255.153 A 2.525 2.525 0 0 0 179.628 255.642 A 2.433 2.433 0 0 0 179.658 256.036 A 1.799 1.799 0 0 0 179.81 256.526 Q 179.991 256.904 180.325 257.106 A 1.354 1.354 0 0 0 180.636 257.245 A 1.562 1.562 0 0 0 181.09 257.309 Q 181.787 257.309 182.183 256.868 Q 182.445 256.575 182.533 256.13 Z M 190.394 256.13 A 2.512 2.512 0 0 0 190.438 255.642 A 2.854 2.854 0 0 0 190.437 255.564 Q 190.418 254.854 190.041 254.429 Q 189.645 253.98 188.971 253.98 A 1.889 1.889 0 0 0 188.631 254.01 A 1.286 1.286 0 0 0 187.881 254.418 A 1.344 1.344 0 0 0 187.716 254.647 Q 187.589 254.869 187.533 255.153 A 2.525 2.525 0 0 0 187.488 255.642 A 2.433 2.433 0 0 0 187.519 256.036 A 1.799 1.799 0 0 0 187.67 256.526 Q 187.852 256.904 188.186 257.106 A 1.354 1.354 0 0 0 188.496 257.245 A 1.562 1.562 0 0 0 188.95 257.309 Q 189.647 257.309 190.043 256.868 Q 190.306 256.575 190.394 256.13 Z M 180.132 255.642 A 2.463 2.463 0 0 0 180.155 255.993 Q 180.208 256.356 180.378 256.579 A 0.797 0.797 0 0 0 180.897 256.885 A 1.208 1.208 0 0 0 181.102 256.901 A 1.13 1.13 0 0 0 181.4 256.864 A 0.786 0.786 0 0 0 181.827 256.58 A 1.044 1.044 0 0 0 181.989 256.264 Q 182.037 256.118 182.058 255.939 A 2.562 2.562 0 0 0 182.074 255.642 A 2.427 2.427 0 0 0 182.051 255.296 Q 181.999 254.932 181.827 254.711 A 0.8 0.8 0 0 0 181.329 254.415 A 1.227 1.227 0 0 0 181.096 254.393 A 1.157 1.157 0 0 0 180.808 254.427 A 0.775 0.775 0 0 0 180.375 254.707 A 1.006 1.006 0 0 0 180.219 255.009 Q 180.173 255.148 180.151 255.318 A 2.57 2.57 0 0 0 180.132 255.642 Z M 187.992 255.642 A 2.463 2.463 0 0 0 188.016 255.993 Q 188.068 256.356 188.238 256.579 A 0.797 0.797 0 0 0 188.757 256.885 A 1.208 1.208 0 0 0 188.962 256.901 A 1.13 1.13 0 0 0 189.26 256.864 A 0.786 0.786 0 0 0 189.687 256.58 A 1.044 1.044 0 0 0 189.85 256.264 Q 189.897 256.118 189.918 255.939 A 2.562 2.562 0 0 0 189.935 255.642 A 2.427 2.427 0 0 0 189.912 255.296 Q 189.859 254.932 189.687 254.711 A 0.8 0.8 0 0 0 189.19 254.415 A 1.227 1.227 0 0 0 188.956 254.393 A 1.157 1.157 0 0 0 188.668 254.427 A 0.775 0.775 0 0 0 188.235 254.707 A 1.006 1.006 0 0 0 188.079 255.009 Q 188.033 255.148 188.011 255.318 A 2.57 2.57 0 0 0 187.992 255.642 Z M 177.554 254.393 A 1.367 1.367 0 0 0 177.289 254.417 Q 177.138 254.447 177.024 254.514 A 0.647 0.647 0 0 0 176.836 254.679 Q 176.643 254.93 176.619 255.483 A 3.747 3.747 0 0 0 176.616 255.642 Q 176.616 256.216 176.779 256.513 A 0.734 0.734 0 0 0 176.842 256.61 A 0.706 0.706 0 0 0 177.2 256.851 Q 177.319 256.889 177.465 256.898 A 1.564 1.564 0 0 0 177.565 256.901 A 0.969 0.969 0 0 0 177.841 256.864 A 0.699 0.699 0 0 0 178.233 256.575 A 1.116 1.116 0 0 0 178.372 256.276 Q 178.415 256.134 178.435 255.962 A 2.787 2.787 0 0 0 178.453 255.636 A 2.873 2.873 0 0 0 178.436 255.308 Q 178.395 254.95 178.256 254.734 A 0.807 0.807 0 0 0 178.233 254.701 A 0.709 0.709 0 0 0 177.782 254.415 A 1.125 1.125 0 0 0 177.554 254.393 Z"
       id="bottom_labelLayer"
       stroke="#777777"
       fill="#777777"
       style="stroke:#777777;fill:#777777"
       vector-effect="non-scaling-stroke" />
  </g>
  <ellipse
     style="fill:none;fill-rule:evenodd;stroke:#000000;stroke-width:0.025;stroke-dasharray:none"
     id="path377"
     cx="212.87698"
     cy="255.06357"
     rx="7.6200504"
     ry="7.4256434" />
  <ellipse
     style="fill:none;fill-rule:evenodd;stroke:#000000;stroke-width:0.025;stroke-dasharray:none"
     id="path377-1"
     cx="155.52657"
     cy="255.45239"
     rx="7.6200504"
     ry="7.4256434" />
</svg>
